/* XPM */
static const char * paint_xpm[] = {
"24 26 146 2",
"  	c None",
". 	c #A78C70",
"+ 	c #B29A80",
"@ 	c #866037",
"# 	c #78440C",
"$ 	c #845D32",
"% 	c #7C562B",
"& 	c #9B5F20",
"* 	c #884F12",
"= 	c #B09980",
"- 	c #764E20",
"; 	c #9E672F",
"> 	c #D48E45",
", 	c #6F4315",
"' 	c #764D20",
") 	c #96642F",
"! 	c #E49745",
"~ 	c #996731",
"{ 	c #856037",
"] 	c #7E582E",
"^ 	c #8A5F30",
"/ 	c #E79137",
"( 	c #B67836",
"_ 	c #764E24",
": 	c #BDA995",
"< 	c #89663F",
"[ 	c #7F562B",
"} 	c #D48839",
"| 	c #BB6C19",
"1 	c #8C653A",
"2 	c #704315",
"3 	c #977857",
"4 	c #7A5327",
"5 	c #C1803B",
"6 	c #C97113",
"7 	c #956430",
"8 	c #7F5427",
"9 	c #AD9478",
"0 	c #A68C6F",
"a 	c #784E22",
"b 	c #AF763C",
"c 	c #DB7C18",
"d 	c #985916",
"e 	c #876239",
"f 	c #6F4212",
"g 	c #B69F88",
"h 	c #73491C",
"i 	c #9B6D3C",
"j 	c #E8851D",
"k 	c #A45B0D",
"l 	c #785631",
"m 	c #895823",
"n 	c #A78B6D",
"o 	c #837969",
"p 	c #897862",
"q 	c #CB7B27",
"r 	c #B6640E",
"s 	c #7D5223",
"t 	c #976632",
"u 	c #764919",
"v 	c #939591",
"w 	c #B2B3B1",
"x 	c #AEAFAC",
"y 	c #8A8A83",
"z 	c #845B2E",
"A 	c #966A3B",
"B 	c #754615",
"C 	c #979995",
"D 	c #F4F4F4",
"E 	c #E7E7E7",
"F 	c #ADADAC",
"G 	c #898982",
"H 	c #875E2F",
"I 	c #A18260",
"J 	c #A1A39E",
"K 	c #C8C8C7",
"L 	c #F9F9F9",
"M 	c #C6C6C6",
"N 	c #A3A3A3",
"O 	c #9FA19D",
"P 	c #898376",
"Q 	c #8F908C",
"R 	c #F6F6F6",
"S 	c #E0E0E0",
"T 	c #AFAFAF",
"U 	c #A6A7A5",
"V 	c #93958F",
"W 	c #B1B1AD",
"X 	c #C2C3C1",
"Y 	c #F8F8F8",
"Z 	c #BBBBBB",
"` 	c #9FA09E",
" .	c #93948F",
"..	c #6D6B6A",
"+.	c #40403F",
"@.	c #595958",
"#.	c #A2A2A2",
"$.	c #9A9B99",
"%.	c #434241",
"&.	c #757575",
"*.	c #848484",
"=.	c #3F3F3F",
"-.	c #202020",
";.	c #777973",
">.	c #3A3938",
",.	c #1A1A1A",
"'.	c #929292",
").	c #484848",
"!.	c #242424",
"~.	c #777573",
"{.	c #636260",
"].	c #000000",
"^.	c #0D0D0D",
"/.	c #2B2B2B",
"(.	c #3B3B3B",
"_.	c #303030",
":.	c #161616",
"<.	c #8D8A88",
"[.	c #CBC8C5",
"}.	c #CDCAC6",
"|.	c #D1CECA",
"1.	c #D5D1CE",
"2.	c #D9D6D2",
"3.	c #8F8D8B",
"4.	c #0A0A0A",
"5.	c #141414",
"6.	c #0E0E0E",
"7.	c #171717",
"8.	c #A5A29F",
"9.	c #ACAAA7",
"0.	c #B4B1AE",
"a.	c #BBB8B5",
"b.	c #C3C0BC",
"c.	c #CAC7C4",
"d.	c #D2CECB",
"e.	c #888683",
"f.	c #0B0B0B",
"g.	c #0C0C0C",
"h.	c #252423",
"i.	c #41403F",
"j.	c #696765",
"k.	c #C6C2BF",
"l.	c #CCC9C5",
"m.	c #CFCCC8",
"n.	c #D4D0CD",
"o.	c #D9D5D1",
"                                                ",
"                                                ",
"                                        . +     ",
"                                      @ # $     ",
"                                    % & * =     ",
"                                  - ; > ,       ",
"                                ' ) ! ~ {       ",
"                              ] ^ / ( _ :       ",
"                            < [ } | 1 2         ",
"                          3 4 5 6 7 8 9         ",
"                        0 a b c d e f           ",
"                      g h i j k l m n           ",
"                      o p q r s t u             ",
"                    v w x y z A B               ",
"                    C D E F G H I               ",
"                  J K L M N O P                 ",
"                  Q R S T U V                   ",
"                W X Y Z `  .                    ",
"              ..+.@.#.$. .                      ",
"            %.&.*.=.-.;.                        ",
"          >.,.'.N ).!.~.                        ",
"        {.].^./.(._.:.<.[.}.|.1.2.              ",
"      3.].].].4.5.6.7.8.9.0.a.b.c.d.2.          ",
"    e.f.f.g.6.h.i.j.k.l.m.n.o.                  ",
"                                                ",
"                                                "};
