/* XPM */
static const char * and_xpm[] = {
"24 17 2 1",
" 	c None",
"+	c #CAC9C8",
"                        ",
"                        ",
"                        ",
" ++++++  ++   +  +++++  ",
" +    +  + +  +  +    + ",
" +    +  + +  +  +    + ",
" +    +  + +  +  +    + ",
" +    +  +  + +  +    + ",
" ++++++  +  + +  +    + ",
" +    +  +  + +  +    + ",
" +    +  +   ++  +    + ",
" +    +  +   ++  +    + ",
" +    +  +   ++  +    + ",
" +    +  +    +  +++++  ",
"                        ",
"                        ",
"                        "};
