/* XPM */
static const char * neg_xpm[] = {
"24 17 2 1",
" 	c None",
"+	c #CAC9C8",
"                        ",
"                        ",
"                        ",
" ++   +  ++++++  ++++++ ",
" + +  +  +       +    + ",
" + +  +  +       +      ",
" + +  +  +       +      ",
" +  + +  +       +      ",
" +  + +  ++++++  +  +++ ",
" +  + +  +       +    + ",
" +   ++  +       +    + ",
" +   ++  +       +    + ",
" +   ++  +       +    + ",
" +    +  ++++++  ++++++ ",
"                        ",
"                        ",
"                        "};
