/* XPM */
static const char * noteye_xpm[] = {
"23 17 55 1",
" 	c None",
".	c #000000",
"+	c #C46D74",
"@	c #9F3C44",
"#	c #B5444E",
"$	c #CCCBC9",
"%	c #CAC9C8",
"&	c #BD5A62",
"*	c #D0CFCD",
"=	c #A5A4A3",
"-	c #7E7E7D",
";	c #3C3C3B",
">	c #7B2D34",
",	c #8E8E8C",
"'	c #3D3D3D",
")	c #6C6C6C",
"!	c #8C343C",
"~	c #D8D7D5",
"{	c #B8B8B6",
"]	c #9A9998",
"^	c #A7A7A7",
"/	c #DBDBDB",
"(	c #8995A1",
"_	c #6A6969",
":	c #C8C7C6",
"<	c #C5C4C3",
"[	c #A4A3A2",
"}	c #666665",
"|	c #0C0C0C",
"1	c #A4A4A4",
"2	c #E2E2E2",
"3	c #F6F6F6",
"4	c #344C65",
"5	c #F4F4F4",
"6	c #868686",
"7	c #575756",
"8	c #AAA9A8",
"9	c #979695",
"0	c #525251",
"a	c #D3D3D3",
"b	c #F2F2F2",
"c	c #F5F5F5",
"d	c #E9E9E9",
"e	c #F0F0F0",
"f	c #DFDFDF",
"g	c #8C8C8B",
"h	c #7A7A79",
"i	c #151515",
"j	c #F7F7F7",
"k	c #FAFAFA",
"l	c #BFBFBF",
"m	c #5E5E5E",
"n	c #B5B5B4",
"o	c #161616",
"p	c #A7A6A5",
"                       ",
"                       ",
"         ..      .     ",
"        .+@.    .#.    ",
"        .##.$%$.&#.    ",
"      *=-.#@.;.&#>.    ",
"     $,').##..&#!.     ",
"   ~{].^/(.####@._:    ",
"  <[}|1234.####.5678   ",
"  ~90.abc.&###.def.g~  ",
"     hij.&####.klm.    ",
"      n.&#!..#!.op     ",
"      .+#!...@#.       ",
"      .#!.   .#@.      ",
"       ..    .@#.      ",
"              ..       ",
"                       "};
