/* XPM */
static const char * or_xpm[] = {
"24 17 2 1",
" 	c None",
"+	c #CAC9C8",
"                        ",
"                        ",
"                        ",
"      ++++   +++++      ",
"     +    +  +    +     ",
"     +    +  +    +     ",
"     +    +  +    +     ",
"     +    +  +    +     ",
"     +    +  +++++      ",
"     +    +  +  +       ",
"     +    +  +   +      ",
"     +    +  +   +      ",
"     +    +  +    +     ",
"      ++++   +    +     ",
"                        ",
"                        ",
"                        "};
