/* XPM */
static const char * arrowdown_xpm[] = {
"7 5 2 1",
" 	c None",
".	c #000000",
"       ",
" ..... ",
"  ...  ",
"   .   ",
"       "};
