/* XPM */
static const char * arrowup_xpm[] = {
"7 5 2 1",
" 	c None",
".	c #000000",
"       ",
"   .   ",
"  ...  ",
" ..... ",
"       "};
