/* XPM */
static const char * rotate_xpm[] = {
"15 13 3 1",
" 	c None",
".	c #848484",
"+	c #0000FF",
"   .+++++.     ",
"  +++++++++    ",
" +++    .+++   ",
".++       ++.  ",
"++.       +++  ",
"++      +++++++",
"++       +++++ ",
"++        +++  ",
"++.        +   ",
".++            ",
" +++.    .+    ",
"  ++++++++.    ",
"   .+++++      "};
