/* XPM */
static const char * glasses_xpm[] = {
"32 20 76 1",
" 	c None",
".	c #A1A1A1",
"+	c #A0A0A0",
"@	c #9E9E9E",
"#	c #E0E2E4",
"$	c #C7C7CA",
"%	c #9F9F9F",
"&	c #E4E4E7",
"*	c #E5E5E7",
"=	c #CDCECF",
"-	c #ECEDEE",
";	c #AFAFB0",
">	c #B3B3B4",
",	c #A2A2A2",
"'	c #F4F4F5",
")	c #9D9D9D",
"!	c #F9FBFC",
"~	c #FFFFFF",
"{	c #9A9A9A",
"]	c #F7F7F8",
"^	c #F6F6F7",
"/	c #E3E3E4",
"(	c #E8E3E2",
"_	c #EAE4E2",
":	c #DFDFE0",
"<	c #DEDFE1",
"[	c #DFE0E2",
"}	c #DDE1E3",
"|	c #DEE9EB",
"1	c #DFEBEE",
"2	c #E1E4E6",
"3	c #F2ECEB",
"4	c #0070BA",
"5	c #0076BB",
"6	c #EFE9E8",
"7	c #D8DADB",
"8	c #AFAFAF",
"9	c #E6EFF1",
"0	c #BB0000",
"a	c #BC0000",
"b	c #E9F2F4",
"c	c #F9F3EF",
"d	c #007BC3",
"e	c #0C81C5",
"f	c #F8F2EF",
"g	c #ECFAFB",
"h	c #C80000",
"i	c #CA0000",
"j	c #EDFBFC",
"k	c #FDF7F3",
"l	c #067FCB",
"m	c #1385CD",
"n	c #F1FFFF",
"o	c #D50000",
"p	c #D60000",
"q	c #FFFBF7",
"r	c #0C84D2",
"s	c #198AD4",
"t	c #F6FFFF",
"u	c #E00000",
"v	c #E10000",
"w	c #FFFFFB",
"x	c #1087DA",
"y	c #1F8FDC",
"z	c #208FDC",
"A	c #F9FFFF",
"B	c #ED0000",
"C	c #6EB6EB",
"D	c #178BE1",
"E	c #1A8DE2",
"F	c #FEFFFF",
"G	c #F85455",
"H	c #F80000",
"I	c #E0DFDF",
"J	c #DFE0E0",
"K	c #999999",
"                                ",
" .+.                        .+@ ",
" +#$%                      %$#+ ",
" %&*=.                    .=*&% ",
" %-;>,                    ,>;-% ",
" %')                        )'% ",
" @!@                        @!@ ",
" @~@                        @~@ ",
" @~{@@@@@@@@@@@@@@@@@@@@@@@@{~@ ",
" @]^]]]]]]]]]]]]]]]]]]]]]]]]^]@ ",
" %/(________(:<[[<}|11111111|2% ",
" %345555555546788790aaaaaaaa0b% ",
" %cdeeeeeeeedf.  .ghiiiiiiiihj% ",
" %klmmmmmmmmlk@  @noppppppppon% ",
" @qrssssssssrq@  @tuvvvvvvvvut@ ",
" @wxyzzzzzzyxw@  @ABBBBBBBBBBA@ ",
" @~CDEEEEEEDC~@  @FGHHHHHHHHGF@ ",
" {I~~~~~~~~~~I{  {J~~~~~~~~~~J{ ",
"  K@@@@@@@@@@K    K@@@@@@@@@@K  ",
"                                "};
