/* XPM */
static const char * planes_xpm[] = {
"29 29 72 1",
" 	c None",
".	c #AA6139",
"+	c #FFE5D2",
"@	c #E2B793",
"#	c #4C4C4C",
"$	c #90471F",
"%	c #A3A3A3",
"&	c #E3C9B6",
"*	c #E3A679",
"=	c #E3A374",
"-	c #E3A475",
";	c #E3A577",
">	c #A4A4A4",
",	c #E3A77A",
"'	c #E2A97D",
")	c #E2AA7F",
"!	c #4BAA39",
"~	c #5FAB2B",
"{	c #5FAB2C",
"]	c #5EAC2D",
"^	c #5EAC2E",
"/	c #5FAD2F",
"(	c #4E9719",
"_	c #BAE2B7",
":	c #7FE275",
"<	c #93E369",
"[	c #95E36B",
"}	c #97E46E",
"|	c #98E471",
"1	c #9AE473",
"2	c #9CE576",
"3	c #9EE67A",
"4	c #8ECF66",
"5	c #8EE288",
"6	c #93E38B",
"7	c #93E28D",
"8	c #95E38F",
"9	c #97E291",
"0	c #B6FDB1",
"a	c #B8FDB3",
"b	c #9FE67D",
"c	c #90CE68",
"d	c #99E294",
"e	c #80E276",
"f	c #A1E680",
"g	c #95CF6B",
"h	c #9BE296",
"i	c #32901F",
"j	c #82E278",
"k	c #A6E884",
"l	c #95CF6D",
"m	c #9CE297",
"n	c #A0C89D",
"o	c #84E27A",
"p	c #A6E786",
"q	c #97CF6F",
"r	c #D6FED2",
"s	c #65C85B",
"t	c #85E27C",
"u	c #A8E889",
"v	c #99CF71",
"w	c #9AFE90",
"x	c #87E27D",
"y	c #AAE88C",
"z	c #9BCE75",
"A	c #E3B18A",
"B	c #E2B38C",
"C	c #E3B48E",
"D	c #E2B591",
"E	c #E2B894",
"F	c #E2B996",
"G	c #C89E7B",
"                  .          ",
"                 ..          ",
"                .+.          ",
"               .+@.          ",
"    ##########$##########    ",
"    #%%%%%%%%.&***.%%%%%#    ",
"    #%%%%%%%.&==-;.%%%%%#    ",
"    #%%%%%>.&==-;*.%%%%%#    ",
"    #%%%%%.&==-;*,.%%%%%#    ",
"    #%%%%%.==-;*,'.%%%%%#    ",
"    #%%%%%.=-;*,').%%%%%#    ",
"    #%%%!!.~~{{]^/(!!!!!#!!!!",
"    #%%!_:.<[}|123456789#0a! ",
"    #%!_::.[}|123bc6789d#a!  ",
"    #!_::e.}|123bfg789dh#!   ",
"    i_::ej.|123bfkl89dhmi    ",
"   !n::ejo.123bfkpq9dhm!#    ",
"  !rs:ejot.23bfkpuvdhm!%#    ",
" !rwsejotx.3bfkpuyzhm!%%#    ",
"!!!!!!!!!!!!!!!!!!!!!%%%#    ",
"    #%%%%%.ABCD@EF.%%%%%#    ",
"    #%%%%%.BCD@EF.%%%%%%#    ",
"    #%%%%%.CD@EF.%%>%%%%#    ",
"    #%%%%%.D@EF.%%%%%%%%#    ",
"    ######.GGG$##########    ",
"          .@@.               ",
"          .@.                ",
"          ..                 ",
"          .                  "};
