/* XPM */
static const char * arrow_xpm[] = {
"25 50 3 1",
" 	c None",
".	c #0A0A0A",
"+	c #0B0B0B",
"       ..++++++++.       ",
"       ..++++++++.       ",
"       ..++++++++.       ",
"       ..++++++++.       ",
"       ..++++++++.       ",
"       ..++++++++.       ",
"       ..++++++++.       ",
"       ..++++++++.       ",
"       ..++++++++.       ",
"       ..++++++++.       ",
"       ..++++++++.       ",
"       ..++++++++.       ",
"       ..++++++++.       ",
"       ..++++++++.       ",
"       ..++++++++.       ",
"       ..++++++++.       ",
"       ..++++++++.       ",
"       ..++++++++.       ",
"       ..++++++++.       ",
"       ..++++++++.       ",
"       ..++++++++.       ",
"       ..++++++++.       ",
"       ..++++++++.       ",
"       ..++++++++.       ",
"       ..++++++++.       ",
"       ..++++++++.       ",
"       ..++++++++.       ",
"       .++++++++++       ",
"       +.++++++++.       ",
" ..++++..++++++++.....+..",
" ++++++++++++++++++++... ",
"  ..+++++++++++++++++++. ",
"  .++++++++++++++++++++  ",
"   .+++++++++++++++++..  ",
"   ...+++++++++++++.+.   ",
"    .+.+++++++++++++.    ",
"     ++++++++++++++..    ",
"     ..+++++++++++.+     ",
"      ++++++++++++++     ",
"      ..+++++++++.+      ",
"       ..+++++++.+       ",
"        +.++++++.+       ",
"        +++++++++        ",
"         .++++.++        ",
"         ...++.+         ",
"          .++..+         ",
"          +.+.+          ",
"           ++.           ",
"            ++           ",
"            +            "};
