/* XPM */
static const char * eye_xpm[] = {
"23 17 91 1",
" 	c None",
".	c #CAC9C8",
"+	c #CCCBC9",
"@	c #E4E4E2",
"#	c #D0CFCD",
"$	c #A5A4A3",
"%	c #7E7E7D",
"&	c #323231",
"*	c #000000",
"=	c #3C3C3B",
"-	c #666665",
";	c #B9B9B7",
">	c #8E8E8C",
",	c #3D3D3D",
"'	c #6C6C6C",
")	c #CCCCCB",
"!	c #7A8693",
"~	c #2B3E52",
"{	c #27384A",
"]	c #717A82",
"^	c #F4F4F3",
"/	c #2A2A2A",
"(	c #50504F",
"_	c #D8D7D5",
":	c #B8B8B6",
"<	c #9A9998",
"[	c #A7A7A7",
"}	c #DBDBDB",
"|	c #8995A1",
"1	c #2A435D",
"2	c #84919F",
"3	c #21354A",
"4	c #1B2B3C",
"5	c #787F86",
"6	c #F7F7F7",
"7	c #929292",
"8	c #6A6969",
"9	c #C8C7C6",
"0	c #C5C4C3",
"a	c #A4A3A2",
"b	c #0C0C0C",
"c	c #A4A4A4",
"d	c #E2E2E2",
"e	c #F6F6F6",
"f	c #344C65",
"g	c #798C9F",
"h	c #464646",
"i	c #495765",
"j	c #333E4A",
"k	c #EAEAEA",
"l	c #F4F4F4",
"m	c #868686",
"n	c #575756",
"o	c #AAA9A8",
"p	c #979695",
"q	c #525251",
"r	c #D3D3D3",
"s	c #F2F2F2",
"t	c #F5F5F5",
"u	c #31475E",
"v	c #797979",
"w	c #596471",
"x	c #1F2B37",
"y	c #E9E9E9",
"z	c #F0F0F0",
"A	c #DFDFDF",
"B	c #8C8C8B",
"C	c #7A7A79",
"D	c #151515",
"E	c #798491",
"F	c #23384E",
"G	c #536373",
"H	c #6C7783",
"I	c #182736",
"J	c #ACB0B4",
"K	c #FAFAFA",
"L	c #BFBFBF",
"M	c #5E5E5E",
"N	c #B5B5B4",
"O	c #808080",
"P	c #F8F8F8",
"Q	c #929598",
"R	c #72767A",
"S	c #76787B",
"T	c #A4A4A6",
"U	c #C8C8C8",
"V	c #878787",
"W	c #161616",
"X	c #A7A6A5",
"Y	c #B4B3B3",
"Z	c #B2B2B1",
"                       ",
"                       ",
"                       ",
"                       ",
"        .++++.+@       ",
"      #$%&***=-;@      ",
"     +>,')!~{]^/(+     ",
"   _:<*[}|123456789    ",
"  0a-bcdefgh*ijklmno   ",
"  _pq*rstu1*vwxyzA*B_  ",
"     CD66EFGHIJKLM*    ",
"      N*OPQRSTUVWX     ",
"        Y******Z       ",
"                       ",
"                       ",
"                       ",
"                       "};
