/* XPM */
static const char * trash_xpm[] = {
"15 17 24 1",
" 	c None",
".	c #8E9AA1",
"+	c #718C95",
"@	c #667986",
"#	c #566775",
"$	c #A4A5A3",
"%	c #525852",
"&	c #434748",
"*	c #F4F3F5",
"=	c #E6EEF8",
"-	c #DBE7F3",
";	c #D7DEEB",
">	c #C3D4E8",
",	c #B9C9E9",
"'	c #B1BAE2",
")	c #99A6DB",
"!	c #333432",
"~	c #D9DCDA",
"{	c #B7C0CC",
"]	c #C3C7C0",
"^	c #98B6DF",
"/	c #9DA6BC",
"(	c #94A5AF",
"_	c #CCD2D6",
"               ",
"     .+@#      ",
" $#@+.+@##%&.  ",
" %*=-;>,''))!~ ",
" %#@+.+@##%&!{ ",
" ]#*=;>,'^)&.{ ",
"  #*+;//'@)&{  ",
"  #*@;/('@)&{  ",
"  #*@;/('@)&{  ",
"  #*@;/('@)&{  ",
"  #*@;/('@)&{  ",
"  #*@;/('@)&{  ",
"  #*+;//'@)&{  ",
"  #*=;>,'^)&{  ",
"  .@+.+@##%@{  ",
"   _{{{{{{{{_  ",
"               "};
