/* XPM */
static const char * livemarkers_xpm[] = {
"20 23 130 2",
"  	c None",
". 	c #FFFFFF",
"+ 	c #E9B96E",
"@ 	c #C17D11",
"# 	c #ABAAA6",
"$ 	c #888A85",
"% 	c #C3C2BD",
"& 	c #D8D5D1",
"* 	c #EFEBE7",
"= 	c #CFCDC8",
"- 	c #C0BFBB",
"; 	c #E0DFDC",
"> 	c #969792",
", 	c #92938F",
"' 	c #E6E4E0",
") 	c #EFEEED",
"! 	c #A1A29E",
"~ 	c #D0CDC9",
"{ 	c #D2D0CC",
"] 	c #7F7E7A",
"^ 	c #F0EEED",
"/ 	c #D9D8D4",
"( 	c #9A9B96",
"_ 	c #A4A4A0",
": 	c #F2F1EF",
"< 	c #A7A8A3",
"[ 	c #E7E7E4",
"} 	c #CECAC3",
"| 	c #A4A5A0",
"1 	c #DAD8D4",
"2 	c #D7D4D0",
"3 	c #EBEAE7",
"4 	c #D4D3CF",
"5 	c #A3A39F",
"6 	c #CFCCC9",
"7 	c #D3D2CE",
"8 	c #A0A19C",
"9 	c #D9D6D0",
"0 	c #A9AAA5",
"a 	c #B8B7B2",
"b 	c #F6F5F4",
"c 	c #DBD8D3",
"d 	c #E3DFDC",
"e 	c #EFEEEC",
"f 	c #E0DEDA",
"g 	c #9A9C97",
"h 	c #F3F2F0",
"i 	c #D1D0CC",
"j 	c #9B9C97",
"k 	c #EBEBEA",
"l 	c #AEAEA9",
"m 	c #F5F4F3",
"n 	c #CECCC7",
"o 	c #C6C6C3",
"p 	c #CCCBC8",
"q 	c #C6C4C2",
"r 	c #E5E3E0",
"s 	c #BAB8B4",
"t 	c #EAE7E4",
"u 	c #D9D6D3",
"v 	c #BCBBB8",
"w 	c #A9AAA6",
"x 	c #DFDEDC",
"y 	c #C1C1BD",
"z 	c #ACADA8",
"A 	c #BFBEBA",
"B 	c #989994",
"C 	c #898B86",
"D 	c #8A8C87",
"E 	c #8297B5",
"F 	c #2C548D",
"G 	c #52719E",
"H 	c #2F568D",
"I 	c #345A91",
"J 	c #466799",
"K 	c #335890",
"L 	c #385D92",
"M 	c #2A528C",
"N 	c #2B538D",
"O 	c #7E93B3",
"P 	c #8EA0BA",
"Q 	c #204A87",
"R 	c #899CB8",
"S 	c #8599B6",
"T 	c #31578F",
"U 	c #95A5BD",
"V 	c #7E93B2",
"W 	c #91A2BC",
"X 	c #8195B4",
"Y 	c #8498B5",
"Z 	c #3D6094",
"` 	c #778FB0",
" .	c #3B5E94",
"..	c #617DA5",
"+.	c #7188AD",
"@.	c #3A5E93",
"#.	c #CBCED6",
"$.	c #ECE8E4",
"%.	c #EAE6E2",
"&.	c #C4C8D0",
"*.	c #91A1B9",
"=.	c #E8E4E0",
"-.	c #E9E5E2",
";.	c #9CABC0",
">.	c #3B5E93",
",.	c #778DAD",
"'.	c #D9D5D1",
").	c #CDCAC6",
"!.	c #6D82A2",
"~.	c #365A8E",
"{.	c #36598D",
"].	c #516D96",
"^.	c #C6C2BF",
"/.	c #CFCCC8",
"(.	c #778CAB",
"_.	c #385D91",
":.	c #8294AE",
"<.	c #6C809F",
"[.	c #647998",
"}.	c #657995",
"|.	c #677A94",
"1.	c #566E92",
"2.	c #7D8CA2",
"3.	c #7588A5",
"4.	c #7288A6",
"5.	c #285089",
"6.	c #274E88",
"7.	c #5E7595",
"8.	c #637898",
"9.	c #6C82A4",
"                    . . . . . . . . . . ",
"      .           . + @ + @ + @ + @ + @ ",
"    . # .       . @ . . $ . . . . . . . ",
"  . % $ & .   . + . * = $ - .           ",
"  . $ ; > .   . @ . * , ' $ .           ",
"  . $ ) ! ~ . . + . { ] ' $ .           ",
"  . $ ^ / ( . . @ . _ : ' $ .           ",
"  . < [ } | 1 . + 2 , 3 4 5 .           ",
"  . 6 $ ) 7 8 . @ # : 9 0 a .           ",
"    . $ b c | d + $ e f g 1 .           ",
"    . 6 $ h i j $ k c 0 l .             ",
"      . $ m n o p q r $ s .             ",
"        . $ t u v f g w .               ",
"          . $ 1 x y z .                 ",
"    . . . A B C C D B . . . .           ",
"  . E F F G H I J K F L M N O .         ",
". P Q R S Q T U . V I Q W X Q Y .       ",
". Z O * * ` T .   .  ...* * +.@..       ",
". Q #.$.%.&.Q .   . Q *.=.-.;.Q .       ",
". >.,.'.).!.~..   . {.].^./.(._..       ",
". :.Q <.[.Q }..   . |.Q 1.2.Q 3..       ",
"  . 4.5.6.7..       . 8.5.5.9..         ",
"    . . . .           . . . .           "};
