/* XPM */
static const char * cloud_xpm[] = {
"35 16 102 2",
"  	c None",
". 	c #FFF000",
"+ 	c #686868",
"@ 	c #B5B5B5",
"# 	c #C7C7C7",
"$ 	c #B1B1B1",
"% 	c #848484",
"& 	c #3E3E3E",
"* 	c #FF0000",
"= 	c #C0C0C0",
"- 	c #EDEDED",
"; 	c #FFFFFF",
"> 	c #F5F5F5",
", 	c #FEFEFE",
"' 	c #CFCFCF",
") 	c #797979",
"! 	c #4A4A4A",
"~ 	c #989898",
"{ 	c #C5C5C5",
"] 	c #AFAFAF",
"^ 	c #ACACAC",
"/ 	c #DADADA",
"( 	c #EBEBEB",
"_ 	c #636363",
": 	c #B6B6B6",
"< 	c #D4D4D4",
"[ 	c #FCFCFC",
"} 	c #F4F4F4",
"| 	c #F9F9F9",
"1 	c #F7F7F7",
"2 	c #BFBFBF",
"3 	c #6D6D6D",
"4 	c #F8F8F8",
"5 	c #FDFDFD",
"6 	c #FBFBFB",
"7 	c #E2E2E2",
"8 	c #8D8D8D",
"9 	c #F3F3F3",
"0 	c #F6F6F6",
"a 	c #EFEFEF",
"b 	c #999999",
"c 	c #6B6B6B",
"d 	c #F1F1F1",
"e 	c #DBDBDB",
"f 	c #ECECEC",
"g 	c #E4E4E4",
"h 	c #E6E6E6",
"i 	c #E9E9E9",
"j 	c #FAFAFA",
"k 	c #BEBEBE",
"l 	c #E1E1E1",
"m 	c #B9B9B9",
"n 	c #B2B2B2",
"o 	c #DCDCDC",
"p 	c #BDBDBD",
"q 	c #EEEEEE",
"r 	c #D8D8D8",
"s 	c #A6A6A6",
"t 	c #F2F2F2",
"u 	c #747474",
"v 	c #474747",
"w 	c #979797",
"x 	c #BCBCBC",
"y 	c #E8E8E8",
"z 	c #E7E7E7",
"A 	c #D5D5D5",
"B 	c #BBBBBB",
"C 	c #AAAAAA",
"D 	c #F0F0F0",
"E 	c #D2D2D2",
"F 	c #B8B8B8",
"G 	c #E5E5E5",
"H 	c #CBCBCB",
"I 	c #969696",
"J 	c #A7A7A7",
"K 	c #C6C6C6",
"L 	c #B4B4B4",
"M 	c #CACACA",
"N 	c #646464",
"O 	c #DFDFDF",
"P 	c #B0B0B0",
"Q 	c #9B9B9B",
"R 	c #8E8E8E",
"S 	c #7D7D7D",
"T 	c #7F7F7F",
"U 	c #606060",
"V 	c #6C6C6C",
"W 	c #D9D9D9",
"X 	c #B7B7B7",
"Y 	c #6E6E6E",
"Z 	c #EAEAEA",
"` 	c #7A7A7A",
" .	c #666666",
"..	c #4F4F4F",
"+.	c #4D4D4D",
"@.	c #959595",
"#.	c #DEDEDE",
"$.	c #A0A0A0",
"%.	c #656565",
"&.	c #AEAEAE",
"*.	c #A1A1A1",
"=.	c #4E4E4E",
"      . . . .                         + @ # $ % &                     ",
"      . * * .                       = - ; > , ; ' )                   ",
"  . . . * * . . .       ! ~ { ] ^ / ; ; ; ; ; ; ; ( +                 ",
"  . * * * * * * . _ : < - ; ; [ } ; | > | , > ( 1 ; 2 ) 3 % +         ",
"  . * * * * * * . ; | ; ; 1 4 ; ; ; ; ; ; , , ; ; 1 5 6 ; ; 5 7 8     ",
"  . . . * * . . . 5 } } [ ; ; , 1 9 ; 5 [ ; ; ; 5 4 ; ; , 0 1 ; a b   ",
"  c } . * * . ; ; 5 ; 1 0 ; , 6 ; ; ; d > ; ; } 1 ; ; ; 5 ; ; ; ; a   ",
"  e 6 . . . . 6 0 5 f g h i h d ; ; ; ; ; 4 [ ; ; > j ; 6 ; [ 6 j k   ",
"  e ; > ; [ ; j 4 ; 0 l ' m n o ; , 4 ; ; 1 5 ; ; ; ; , ; ; 1 j p     ",
"  c a ; ; f | ; ; h q a r s b < ; 0 ; 4 , ; ; t 9 ; } 6 ; } ; ; u     ",
"    v w x y 1 5 ; [ 0 z A B C { } ; ; 1 d > 1 ; ; D ; j ; 1 ; E       ",
"          F ; ; , ; j G r H ^ I J K r y ; g L M ; ; } 0 ; t H N       ",
"          p ; a - ; 0 ; | O { P Q R R S T U     V ] W o X V           ",
"          Y g ; ; 4 j 0 Z y ( E ^ Q ` c  ...                          ",
"            +.@.E i f K s 2 i #.= = $.@.%.                            ",
"                            Y &.&.*.S =.                              "};
