/* XPM */
static const char * run_xpm[] = {
"22 29 228 2",
"  	c None",
". 	c #825F5A",
"+ 	c #866664",
"@ 	c #431B14",
"# 	c #522A21",
"$ 	c #623831",
"% 	c #58322B",
"& 	c #95562D",
"* 	c #834A27",
"= 	c #451B15",
"- 	c #653421",
"; 	c #DC7F40",
"> 	c #A25A2E",
", 	c #481F19",
"' 	c #6F4C49",
") 	c #6F371E",
"! 	c #BB6834",
"~ 	c #612E19",
"{ 	c #4A211F",
"] 	c #471E15",
"^ 	c #4C2114",
"/ 	c #48201D",
"( 	c #724C48",
"_ 	c #6B423D",
": 	c #643E3F",
"< 	c #593433",
"[ 	c #714C47",
"} 	c #61372F",
"| 	c #804228",
"1 	c #613026",
"2 	c #4C231C",
"3 	c #7E4324",
"4 	c #5A2E24",
"5 	c #A28785",
"6 	c #8E706D",
"7 	c #321212",
"8 	c #240504",
"9 	c #5F3938",
"0 	c #6B3A2D",
"a 	c #6E3826",
"b 	c #502927",
"c 	c #421912",
"d 	c #401710",
"e 	c #481E18",
"f 	c #49211D",
"g 	c #6C4140",
"h 	c #522928",
"i 	c #673420",
"j 	c #794028",
"k 	c #5A3534",
"l 	c #411812",
"m 	c #5E311B",
"n 	c #804625",
"o 	c #733F22",
"p 	c #4F2417",
"q 	c #4A1F1C",
"r 	c #95695F",
"s 	c #795A5A",
"t 	c #4D2524",
"u 	c #6F4641",
"v 	c #946D5F",
"w 	c #441A1B",
"x 	c #4A2014",
"y 	c #915229",
"z 	c #E78945",
"A 	c #E48644",
"B 	c #96552E",
"C 	c #512618",
"D 	c #491E1B",
"E 	c #724940",
"F 	c #5F382F",
"G 	c #6F371F",
"H 	c #441B15",
"I 	c #43191A",
"J 	c #441A13",
"K 	c #784121",
"L 	c #CF7138",
"M 	c #E97F3D",
"N 	c #DE7E3F",
"O 	c #814827",
"P 	c #461C14",
"Q 	c #59302A",
"R 	c #6A4744",
"S 	c #65301A",
"T 	c #391812",
"U 	c #724C4F",
"V 	c #3D1413",
"W 	c #7D4323",
"X 	c #D97437",
"Y 	c #E87D3A",
"Z 	c #CD733A",
"` 	c #5C301B",
" .	c #401612",
"..	c #785350",
"+.	c #724A49",
"@.	c #987B79",
"#.	c #58322F",
"$.	c #451C1B",
"%.	c #492015",
"&.	c #8E4D27",
"*.	c #D87437",
"=.	c #E57E3D",
"-.	c #844927",
";.	c #441B13",
">.	c #532926",
",.	c #592C22",
"'.	c #6D3927",
").	c #734C48",
"!.	c #633331",
"~.	c #3E1513",
"{.	c #6B3B1F",
"].	c #C06833",
"^.	c #E57C3C",
"/.	c #8F502A",
"(.	c #451C13",
"_.	c #532B2A",
":.	c #47231C",
"<.	c #552C1E",
"[.	c #6F4642",
"}.	c #83584D",
"|.	c #67352A",
"1.	c #471912",
"2.	c #471D15",
"3.	c #542819",
"4.	c #874C28",
"5.	c #DA783C",
"6.	c #D27337",
"7.	c #67371E",
"8.	c #59322C",
"9.	c #6B3E3B",
"0.	c #582722",
"a.	c #481C12",
"b.	c #512718",
"c.	c #693820",
"d.	c #894E2A",
"e.	c #A76033",
"f.	c #DD7E40",
"g.	c #DC793B",
"h.	c #502717",
"i.	c #3D1412",
"j.	c #754F4C",
"k.	c #875D51",
"l.	c #562A22",
"m.	c #481D15",
"n.	c #5B2D1B",
"o.	c #744124",
"p.	c #AF6736",
"q.	c #CE763C",
"r.	c #D8783B",
"s.	c #D8783C",
"t.	c #B26332",
"u.	c #864924",
"v.	c #592D19",
"w.	c #471E14",
"x.	c #4E2422",
"y.	c #441914",
"z.	c #502417",
"A.	c #62341E",
"B.	c #9F5B30",
"C.	c #D87B3F",
"D.	c #E47E3D",
"E.	c #D07238",
"F.	c #975129",
"G.	c #68381E",
"H.	c #542918",
"I.	c #481F14",
"J.	c #3C1311",
"K.	c #3F1613",
"L.	c #3F1717",
"M.	c #431A13",
"N.	c #AD6133",
"O.	c #E47E3E",
"P.	c #D97539",
"Q.	c #BA6532",
"R.	c #753F21",
"S.	c #4D2416",
"T.	c #3C1210",
"U.	c #532A29",
"V.	c #795555",
"W.	c #552A18",
"X.	c #A1592D",
"Y.	c #DE793B",
"Z.	c #E37A3B",
"`.	c #BC6632",
" +	c #723E20",
".+	c #4D2415",
"++	c #3B1210",
"@+	c #401818",
"#+	c #5F3230",
"$+	c #6D3F3A",
"%+	c #5E3232",
"&+	c #441B12",
"*+	c #6D3A1F",
"=+	c #E37C3C",
"-+	c #E77C3B",
";+	c #C46A33",
">+	c #6C3B1F",
",+	c #4C2315",
"'+	c #401816",
")+	c #593231",
"!+	c #542D2C",
"~+	c #471D13",
"{+	c #E37F3F",
"]+	c #CD7239",
"^+	c #7E4524",
"/+	c #542B18",
"(+	c #421A12",
"_+	c #664340",
":+	c #613C3B",
"<+	c #471E13",
"[+	c #63361D",
"}+	c #8A4D28",
"|+	c #7A4423",
"1+	c #572D18",
"2+	c #451B13",
"3+	c #502623",
"4+	c #613839",
"5+	c #522917",
"6+	c #4E2516",
"7+	c #3E1511",
"8+	c #421918",
"9+	c #411817",
"0+	c #350C0B",
"a+	c #370E0D",
"b+	c #4E2626",
"c+	c #603A3B",
"d+	c #684342",
"e+	c #69423F",
"                                            ",
"                        .                   ",
"                    + @ # $                 ",
"                    % & * =                 ",
"                    - ; > ,                 ",
"                  ' ) ! ~ {                 ",
"                    ] ^ /   ( _             ",
"                    : < [ } | 1             ",
"                          2 3 4 5 6         ",
"                          7 8 9 0 a         ",
"                b c d e f g   h i j         ",
"              k l m n o p q r s t u v       ",
"              w x y z A B C D E   F G H     ",
"              I J K L M N O P Q   R S T     ",
"              U V x W X Y Z `  ...  +.@.    ",
"                #.$.%.&.*.=.-.;.>.  ,.'.).  ",
"                  !.~.{.].^./.(._.  :.<.[.  ",
"            }.|.1.2.3.4.5.6.7.c 8.          ",
"        9.0.a.b.c.d.e.f.g.&.h.i.j.          ",
"    k.l.m.n.o.p.q.r.s.t.u.v.w.x.            ",
"    y.z.A.B.C.D.E.F.G.H.I.J.K.              ",
"  L.M.G.N.O.P.Q.R.S.(.T.T.U.                ",
"V.~.W.X.Y.Z.`. +.+++@+#+$+                  ",
"%+&+*+=+-+;+>+,+'+)+                        ",
"!+~+o {+]+^+/+(+_+                          ",
":+<+[+}+|+1+2+3+                            ",
"4+++,+5+6+7+8+                              ",
"  9+0+a+J.b+                                ",
"    c+d+e+                                  "};
