/* XPM */
static const char * brightcontr_xpm[] = {
"34 17 52 1",
" 	c None",
".	c #000000",
"+	c #050505",
"@	c #0B0B0B",
"#	c #1B1B1B",
"$	c #1E1E1D",
"%	c #1D1D1E",
"&	c #1E1D1E",
"*	c #1D1E1E",
"=	c #1E1E1E",
"-	c #222222",
";	c #232323",
">	c #232423",
",	c #242423",
"'	c #232324",
")	c #242324",
"!	c #3A3939",
"~	c #3A3A39",
"{	c #39393A",
"]	c #3A3A3A",
"^	c #404040",
"/	c #494949",
"(	c #494A49",
"_	c #4A4A4A",
":	c #4A4A4B",
"<	c #535353",
"[	c #545453",
"}	c #535454",
"|	c #545454",
"1	c #5A5A5A",
"2	c #626262",
"3	c #626263",
"4	c #7D7D7C",
"5	c #7D7D7D",
"6	c #7F7F7F",
"7	c #FF00FF",
"8	c #888887",
"9	c #878788",
"0	c #888888",
"a	c #8C8D8C",
"b	c #8D8D8C",
"c	c #8D8C8D",
"d	c #8C8D8D",
"e	c #8D8D8D",
"f	c #929292",
"g	c #949594",
"h	c #959594",
"i	c #959495",
"j	c #B9B9B9",
"k	c #DBDBDA",
"l	c #DADBDB",
"m	c #FFFFFF",
"                         .        ",
"                         .        ",
"    0/'@@,/0       .            . ",
"   1=_5j...*1       . 6^#+#^6  .  ",
"  1~fmmm....{1       3-|blc[-3    ",
" 8%fmmmm.....=8     6-hmmmmmi-6   ",
" __mmmmm.....=_     ^|mmmmmmm<^   ",
" '5mmmmm......;     #ammmmmmme#   ",
" @jmmmmm......@  .. +lmmmmmmmk+ ..",
" @jmmmmm......@     #dmmmmmmmb#   ",
" >5mmmmm......;     ^}mmmmmmm|^   ",
" __mmmmm....../     6-gmmmmmi-6   ",
" 9=fmmmm.....$9      2-|ckd|-2    ",
"  1!fmmm....]1      . 6^#+#^6 .   ",
"   1$:4j...&1      .           .  ",
"    0/)@@.(0             .        ",
"                         .        "};
