/* XPM */
static const char * save_canvas_xpm[] = {
"16 16 99 2",
"  	c None",
". 	c #B6B5B3",
"+ 	c #8B8988",
"@ 	c #6D6D71",
"# 	c #D4D2D1",
"$ 	c #F7F7FF",
"% 	c #E2E1EA",
"& 	c #E6E5EE",
"* 	c #EBEAF3",
"= 	c #919197",
"- 	c #E5E4EF",
"; 	c #93939B",
"> 	c #D2D3DA",
", 	c #DDDDE7",
"' 	c #E9E9F3",
") 	c #CDCCD3",
"! 	c #D8D7E0",
"~ 	c #DDDDE5",
"{ 	c #8F8F95",
"] 	c #9D9DAB",
"^ 	c #C2C1CE",
"/ 	c #97979D",
"( 	c #B7B7BE",
"_ 	c #C6C6CF",
": 	c #9898A0",
"< 	c #BEBEC4",
"[ 	c #E7E8F2",
"} 	c #CECDD5",
"| 	c #D6D5DE",
"1 	c #D9D9E2",
"2 	c #BEBECA",
"3 	c #CDCDD6",
"4 	c #A1A0A7",
"5 	c #BDBDC4",
"6 	c #CDCDD4",
"7 	c #D4D4DC",
"8 	c #99999F",
"9 	c #E1E0E9",
"0 	c #A8A8AF",
"a 	c #BABAC1",
"b 	c #D5D4DD",
"c 	c #D6D6DE",
"d 	c #96969A",
"e 	c #BFBEC8",
"f 	c #EAEAF4",
"g 	c #9C9CA2",
"h 	c #B8B9C0",
"i 	c #9B9BA1",
"j 	c #929298",
"k 	c #939399",
"l 	c #94949A",
"m 	c #96969C",
"n 	c #95959B",
"o 	c #C2C1CB",
"p 	c #D2D2DC",
"q 	c #BABAC2",
"r 	c #CACBD4",
"s 	c #D2D2DB",
"t 	c #F7F7F9",
"u 	c #CBCBD4",
"v 	c #D0D0D9",
"w 	c #E3E2E8",
"x 	c #C9CAD3",
"y 	c #CECED7",
"z 	c #C8C8D2",
"A 	c #CDCCD6",
"B 	c #C6C6D0",
"C 	c #F6F7FB",
"D 	c #F3F6F8",
"E 	c #F4F5F8",
"F 	c #F4F6F8",
"G 	c #F3F5F8",
"H 	c #F4F4F7",
"I 	c #F4F5FB",
"J 	c #C5C6D0",
"K 	c #ACADB2",
"L 	c #A7A3AD",
"M 	c #A0719E",
"N 	c #9F6E9D",
"O 	c #A2709F",
"P 	c #A16F9E",
"Q 	c #9C6D9B",
"R 	c #956896",
"S 	c #8F6290",
"T 	c #875C8A",
"U 	c #7F5483",
"V 	c #7B5381",
"W 	c #BFBCCA",
"X 	c #774F74",
"Y 	c #784F75",
"Z 	c #7A5276",
"` 	c #795176",
" .	c #724B71",
"..	c #6D476C",
"+.	c #674467",
"@.	c #623E64",
"#.	c #613E63",
"$.	c #7C7B7A",
"%.	c #686766",
". + + + + @ + + + + + + @ + + # ",
"+ $ % & * = - - - - - - ; > , + ",
"+ ' ) ! ~ { ] ^ - / ( _ : < [ + ",
"+ ' } | 1 = 2 - _ / 3 _ 4 5 ' + ",
"+ ' 6 7 | 8 9 _ _ / / _ 0 a ' + ",
"+ ' ) b c d _ e f f f f g h ' + ",
"+ ' 6 c c i j k l m m l n o ' + ",
"+ ' p q q q q q q q q q q r ' + ",
"+ ' s t t t t t t t t t t u ' + ",
"+ ' v t w w w w w w w w t x ' + ",
"+ ' y t t t t t t t t t t z ' + ",
"+ ' A t w w w w w w w w t B ' + ",
"+ ' B C D E F F D E G H I J ' + ",
"+ K L M N O P Q R S T U V W ' + ",
"+ ' ' X Y Z ` X  ...+.@.#.' ' + ",
". $.%.%.%.%.%.%.%.%.%.%.%.%.$.. "};
