/* XPM */
static const char * zoomin_xpm[] = {
"16 16 62 1",
" 	c None",
".	c #000000",
"+	c #7B634A",
"@	c #736B5A",
"#	c #185AB5",
"$	c #737BAD",
"%	c #A57B4A",
"&	c #DE8421",
"*	c #E78418",
"=	c #E78C18",
"-	c #EF8C21",
";	c #C69C6B",
">	c #FFB54A",
",	c #FFB552",
"'	c #FFBD52",
")	c #8C8CB5",
"!	c #8C94A5",
"~	c #8C9CB5",
"{	c #8C9CBD",
"]	c #9494BD",
"^	c #8C94C6",
"/	c #9494C6",
"(	c #949CC6",
"_	c #94ADCE",
":	c #9CA5C6",
"<	c #9CA5CE",
"[	c #9CADC6",
"}	c #9CADCE",
"|	c #84BDEF",
"1	c #A5ADCE",
"2	c #A5B5D6",
"3	c #A5BDDE",
"4	c #ADBDDE",
"5	c #B5B5CE",
"6	c #BDBDD6",
"7	c #94CEF7",
"8	c #9CCEF7",
"9	c #ADC6DE",
"0	c #BDD6DE",
"a	c #ADC6E7",
"b	c #A5D6F7",
"c	c #ADDEFF",
"d	c #BDDEE7",
"e	c #B5DEF7",
"f	c #ADE7FF",
"g	c #B5E7FF",
"h	c #EFD6B5",
"i	c #C6D6E7",
"j	c #C6EFFF",
"k	c #CEE7F7",
"l	c #C6F7FF",
"m	c #CEF7FF",
"n	c #D6EFF7",
"o	c #D6F7F7",
"p	c #D6F7FF",
"q	c #D6FFFF",
"r	c #DEFFFF",
"s	c #EFF7F7",
"t	c #EFF7FF",
"u	c #EFFFFF",
"v	c #F7FFFF",
"w	c #FFFFFF",
"        _}33    ",
"       6njfge}  ",
"      9wt7|8gl{ ",
"     (jjb8#mpqd ",
"     4g|7j#jrrn:",
"     ac|#####ro[",
"     3f7mi#iiun(",
"     ^ebmq#uvw0 ",
"     52jqqqrus) ",
"    'h!~kqqqd1  ",
"   ,>&@ $:2<    ",
"  ,>=%]         ",
" ,,*%/          ",
">,-%/           ",
";=%/            ",
" +]             "};
